<svg width="512" height="336" viewBox="0 0 512 336" xmlns="http://www.w3.org/2000/svg">
	<path d="M0,0h512v336H0V0z" fill="#244AA5"/>
	<path d="M258.7,98.9c2.2,2.5,3.6,5.1,3.6,8.2c-1.8,0.9-4.4,1.3-5.8,2.9c9.1-1.3,10.9,9.3,21.1,5.3
		c0.4,1.5,1.8,2.7,3.6,2.2l1.1-2.9c4-1.1,2.9,5.4,7.3,4.2c2.2,1.8,0.7,4.9,2.2,7.1c0,2.5,1.1,4.7,2.2,6.9c1.1-1.3,1.8-3.1,4.4-2.5
		c1.8,2,3.3,3.8,3.6,6c-0.7,4.2-1.8,7.8,2.5,10v1.3c2.9,1.3,9.5-1.3,9.5,3.8c-0.4,1.8,1.8,0.2,2.5,1.3c1.8-0.7,4.4-0.4,6.5-0.4
		c1.8,3.8-2.2,6.5-3.3,10c1.8,1.8,1.1,5.1,0.7,7.3l-1.1,0.5c2.9,0.5,6.5-0.4,9.1,1.3l4.7,1.8c2.2-1.3,4.7-1.5,7.6-1.3
		c2.2,1.6-0.7,4.4,1.1,5.6c2.5,0,4.7,0.4,5.1,2.5l0.4,0.7c1.8-3.3,6.9-1.1,9.1-3.4c3.6,0,4.4,4,6.2,6.2c0.7,5.6-6.2,8.2-4,13.8
		c-1.5,2.7-4.4,4.9-6.5,7.4c0.7,0.4,0.3,1.3,0.3,1.8c-2.2,1.3-0.3,5.1-3.3,5.4c-0.4,2.4-4.7,1.5-3.3,4c2.9,3.8-1.4,6.2-1.4,9.6
		c-1.8,2-5.5-1.8-5.5,2c-2.2,0.5-4.4-2-5.8,0.2c-0.7,2.5,1.4,3.4,1.1,6c3.6-0.4,4.7,3.3,6.2,5.4l3.6,3.6c-3.6,2.9-8.4-0.4-12.7,1.3
		c-1.1-0.5,0-2-1.1-2.5c-1.1-1.3-3.3-1.3-5.1-1.6c0.4,1.6-2.9,2.2-1.5,4.2c0,0.5,0.7,2.2-0.7,2.2c-2.9,0.9-2.5-2.5-5.1-1.3
		c-3.3,1.3-0.7,6.2-5.4,5.6c0.7,4.4-7.3,7.3-1.8,11.1c0.7,0.7,0.4,2.2,0.4,3.3c-3.3,2.9-9.1,1.8-12.7,0.7c-2.9-0.7-1.1-4.4-2.2-6.4
		c-1.1-1.8-4.4-3.1-4.4-5.6c-2.2-0.9-4-1.5-5.5-3.3c-5.1,4.9-11.3,9.6-18.5,9.8c-3.3,1.6-5.1,8.2-10.2,5.5c-2,3.3-8,0-8.4,4.7
		c-2.4,0.9-1.3,4-2.7,5.4c-0.5,3.6,0,6.7,3.1,8.9c1.3,2.7-2.7,2.7-1.1,5.3c0.4,0.9,0,2.2-0.5,2.5c-1.1,0.5-1.4,1.1-1.1,2.2
		c-0.9,0-1.3,0.5-2,1.3c-0.9,1.8-3.8,2.7-5.8,4c-2,0.5-3.5-0.9-4.7-2.2c-0.4,2-2,3.1-4,3.1c-2.9,0-2.4-2.5-4.5-3.6
		c0.9-3.3-2-4.7-1.1-7.6c2.4-1.8,6.4-3.1,5.3-6.9c-2.5-3.1-1.6-7.6-4.2-11.3c-1.6-1.4-4.4-3.6-3.5-7.1c2.4-2.7,0-6-1.3-8.9
		c-0.5-2.4-2-4.6-2-7.3c-4-2.4-4.2-8.5-9.8-9.1c-4,0-4.7-5.1-8.7-4.7c-0.4-0.7-1.3-1.3-2-2c-2.9,2-6.5-0.5-10.2,0.4
		c-2.4-4,2-9.4-4.4-11.8v-2.5c0.7,0.3,1.1-0.4,1.3-0.7c0.4-2.7-4.5-3.1-2.5-6.2c-1.1-0.9-2.4-1.3-1.6-3.1
		c-2.7-5.6-10.9-5.1-12.7-10.7c1.5-1.3,1.5-2.5,2-3.6c-1.3-2.2-1.6-4.5-1.3-6.9c1.3-0.4,2-2,2.7-3.3c-1.6-1.1-3.6-2.7-5.4-2.2
		c-3.3-0.5-5.6-3.1-8.5-4.5c-0.7-0.7-0.4-2-0.4-2.9c4-1.3-0.5-6.9,4.4-6.2c1.3-1.6,4-2.2,6-3.5c2-0.4,3.6,0.4,5.6,0.9
		c1.6,2.2,4.5,1.3,6.2,3.1c1.6-0.4,3.6-1.3,5.6-0.4c0-3.1,1.4-4.9,3.6-7.1c0.4-1.3,2.4-2.2,4-2.9c3.1,0.7,6.7,0.7,8.9-1.5
		c1.4,0.9,2.7-0.9,4.4-0.9c2-0.4,3.6,0.2,5.1,1.1c0.2-3.6,6.5-0.5,7.8-4.9c1.4-2.9-4-4-3.6-6.5c-0.9-2.9,1.3-4.4,2.4-6.4
		c1.3-0.5,2.7-1.3,4.4-0.9c4.2-1.4,0.9-10,7.6-6.9c0,0.9-0.4,2,0.2,2.2c2.4,0,2.7-2.7,4.4-3.6c0.7-2.5-0.9-5.6,1.3-7.6
		c1.1-0.2,2-0.5,2.7-1.5c0-2-1.1-3.1-2.7-4.4c-0.5,0.9-2,0.2-2.9,0.5c0-2.2-1.3-3.6-1.6-5.6c-1.1-0.5-1.6-1.4-1.3-2.7
		c1.6-1.6,0-5.6,3.8-4.7c1.4-1.3,4-0.4,5.4-2.5c3.8-2.2,8.9-2.2,11.8-6.2c1.3,0.2,2.7-1.1,4,0C255.2,97.6,258.7,96.7,258.7,98.9" fill="#D0A650"/>
	<path d="M286.8,49.6l-5-15.4l-5,15.4h-16.2l13.1,9.5l-5,15.4l13.1-9.5l13.1,9.5l-5-15.4l13.1-9.5H286.8z" fill="#FFFFFF"/>
	<path d="M337.9,58.6l-5-15.4l-5,15.4h-16.2l13.1,9.5l-5,15.4l13.1-9.5l13.1,9.5l-5-15.4l13.1-9.5L337.9,58.6z" fill="#FFFFFF"/>
	<path d="M386.6,76.4l-5-15.4l-5,15.4h-16.2l13.1,9.5l-5,15.4l13.1-9.5l13.1,9.5l-5-15.4l13.1-9.5H386.6z" fill="#FFFFFF"/>
	<path d="M234.9,49.6l-5-15.4l-5,15.4h-16.2l13.1,9.5l-5,15.4l13.1-9.5l13.1,9.5l-5-15.4l13.1-9.5H234.9z" fill="#FFFFFF"/>
	<path d="M183.8,58.6l-5-15.4l-5,15.4h-16.2l13.1,9.5l-5,15.4l13.1-9.5l13.1,9.5l-5-15.4l13.1-9.5L183.8,58.6z" fill="#FFFFFF"/>
	<path d="M135.1,76.4l-5-15.4l-5,15.4h-16.2l13.1,9.5l-5,15.4l13.1-9.5l13.1,9.5l-5-15.4l13.1-9.5H135.1z" fill="#FFFFFF"/>
</svg>
